<svg width="144" height="48" viewBox="0 0 144 48" fill="none" xmlns="http://www.w3.org/2000/svg">
<circle cx="24" cy="24" r="23.5" fill="#D9D9D9" stroke="black"/>
<path d="M8.25213 28V19.2727H9.30895V27.0625H13.3658V28H8.25213ZM22.0259 23.6364C22.0259 24.5568 21.8597 25.3523 21.5273 26.0227C21.195 26.6932 20.739 27.2102 20.1594 27.5739C19.5799 27.9375 18.918 28.1193 18.1737 28.1193C17.4293 28.1193 16.7674 27.9375 16.1879 27.5739C15.6083 27.2102 15.1523 26.6932 14.82 26.0227C14.4876 25.3523 14.3214 24.5568 14.3214 23.6364C14.3214 22.7159 14.4876 21.9205 14.82 21.25C15.1523 20.5795 15.6083 20.0625 16.1879 19.6989C16.7674 19.3352 17.4293 19.1534 18.1737 19.1534C18.918 19.1534 19.5799 19.3352 20.1594 19.6989C20.739 20.0625 21.195 20.5795 21.5273 21.25C21.8597 21.9205 22.0259 22.7159 22.0259 23.6364ZM21.0032 23.6364C21.0032 22.8807 20.8768 22.2429 20.6239 21.723C20.3739 21.2031 20.0344 20.8097 19.6055 20.5426C19.1793 20.2756 18.7021 20.142 18.1737 20.142C17.6452 20.142 17.1665 20.2756 16.7376 20.5426C16.3114 20.8097 15.9719 21.2031 15.7191 21.723C15.4691 22.2429 15.3441 22.8807 15.3441 23.6364C15.3441 24.392 15.4691 25.0298 15.7191 25.5497C15.9719 26.0696 16.3114 26.4631 16.7376 26.7301C17.1665 26.9972 17.6452 27.1307 18.1737 27.1307C18.7021 27.1307 19.1793 26.9972 19.6055 26.7301C20.0344 26.4631 20.3739 26.0696 20.6239 25.5497C20.8768 25.0298 21.0032 24.392 21.0032 23.6364ZM29.7688 22C29.6751 21.7131 29.5515 21.456 29.3981 21.2287C29.2475 20.9986 29.0671 20.8026 28.8569 20.6406C28.6495 20.4787 28.4137 20.3551 28.1495 20.2699C27.8853 20.1847 27.5955 20.142 27.2802 20.142C26.7631 20.142 26.293 20.2756 25.8697 20.5426C25.4464 20.8097 25.1097 21.2031 24.8597 21.723C24.6097 22.2429 24.4847 22.8807 24.4847 23.6364C24.4847 24.392 24.6112 25.0298 24.864 25.5497C25.1168 26.0696 25.4592 26.4631 25.891 26.7301C26.3228 26.9972 26.8086 27.1307 27.3484 27.1307C27.8484 27.1307 28.2887 27.0241 28.6694 26.8111C29.0529 26.5952 29.3512 26.2912 29.5643 25.8991C29.7802 25.5043 29.8881 25.0398 29.8881 24.5057L30.212 24.5739H27.587V23.6364H30.9109V24.5739C30.9109 25.2926 30.7575 25.9176 30.4506 26.4489C30.1467 26.9801 29.7262 27.392 29.1893 27.6847C28.6552 27.9744 28.0415 28.1193 27.3484 28.1193C26.5756 28.1193 25.8967 27.9375 25.3114 27.5739C24.729 27.2102 24.2745 26.6932 23.9478 26.0227C23.6239 25.3523 23.462 24.5568 23.462 23.6364C23.462 22.946 23.5543 22.3253 23.739 21.7741C23.9265 21.2202 24.1907 20.7486 24.5316 20.3594C24.8725 19.9702 25.2759 19.6719 25.7418 19.4645C26.2077 19.2571 26.7205 19.1534 27.2802 19.1534C27.7404 19.1534 28.1694 19.223 28.5671 19.3622C28.9677 19.4986 29.3242 19.6932 29.6367 19.946C29.9521 20.196 30.2148 20.4957 30.4251 20.8452C30.6353 21.1918 30.7802 21.5767 30.8597 22H29.7688ZM40.0845 23.6364C40.0845 24.5568 39.9183 25.3523 39.5859 26.0227C39.2536 26.6932 38.7976 27.2102 38.218 27.5739C37.6385 27.9375 36.9766 28.1193 36.2322 28.1193C35.4879 28.1193 34.826 27.9375 34.2464 27.5739C33.6669 27.2102 33.2109 26.6932 32.8786 26.0227C32.5462 25.3523 32.38 24.5568 32.38 23.6364C32.38 22.7159 32.5462 21.9205 32.8786 21.25C33.2109 20.5795 33.6669 20.0625 34.2464 19.6989C34.826 19.3352 35.4879 19.1534 36.2322 19.1534C36.9766 19.1534 37.6385 19.3352 38.218 19.6989C38.7976 20.0625 39.2536 20.5795 39.5859 21.25C39.9183 21.9205 40.0845 22.7159 40.0845 23.6364ZM39.0618 23.6364C39.0618 22.8807 38.9354 22.2429 38.6825 21.723C38.4325 21.2031 38.093 20.8097 37.6641 20.5426C37.2379 20.2756 36.7607 20.142 36.2322 20.142C35.7038 20.142 35.2251 20.2756 34.7962 20.5426C34.37 20.8097 34.0305 21.2031 33.7777 21.723C33.5277 22.2429 33.4027 22.8807 33.4027 23.6364C33.4027 24.392 33.5277 25.0298 33.7777 25.5497C34.0305 26.0696 34.37 26.4631 34.7962 26.7301C35.2251 26.9972 35.7038 27.1307 36.2322 27.1307C36.7607 27.1307 37.2379 26.9972 37.6641 26.7301C38.093 26.4631 38.4325 26.0696 38.6825 25.5497C38.9354 25.0298 39.0618 24.392 39.0618 23.6364Z" fill="black"/>
<path d="M57.2482 28V19.2727H60.2994C60.9073 19.2727 61.4087 19.3778 61.8036 19.5881C62.1985 19.7955 62.4925 20.0753 62.6857 20.4276C62.8789 20.777 62.9755 21.1648 62.9755 21.5909C62.9755 21.9659 62.9087 22.2756 62.7752 22.5199C62.6445 22.7642 62.4712 22.9574 62.2553 23.0994C62.0423 23.2415 61.8107 23.3466 61.5607 23.4148V23.5C61.8278 23.517 62.0962 23.6108 62.3661 23.7812C62.636 23.9517 62.8619 24.196 63.0437 24.5142C63.2255 24.8324 63.3164 25.2216 63.3164 25.6818C63.3164 26.1193 63.217 26.5128 63.0181 26.8622C62.8192 27.2116 62.5053 27.4886 62.0763 27.6932C61.6474 27.8977 61.0891 28 60.4016 28H57.2482ZM58.305 27.0625H60.4016C61.092 27.0625 61.582 26.929 61.8718 26.6619C62.1644 26.392 62.3107 26.0653 62.3107 25.6818C62.3107 25.3864 62.2354 25.1136 62.0849 24.8636C61.9343 24.6108 61.7198 24.4091 61.4414 24.2585C61.163 24.1051 60.8335 24.0284 60.4528 24.0284H58.305V27.0625ZM58.305 23.108H60.2653C60.5835 23.108 60.8704 23.0455 61.1261 22.9205C61.3846 22.7955 61.5891 22.6193 61.7397 22.392C61.8931 22.1648 61.9698 21.8977 61.9698 21.5909C61.9698 21.2074 61.8363 20.8821 61.5692 20.6151C61.3022 20.3452 60.8789 20.2102 60.2994 20.2102H58.305V23.108ZM65.0529 28V19.2727H68.0018C68.6836 19.2727 69.2433 19.3892 69.6808 19.6222C70.1183 19.8523 70.4421 20.169 70.6523 20.5724C70.8626 20.9759 70.9677 21.4347 70.9677 21.9489C70.9677 22.4631 70.8626 22.919 70.6523 23.3168C70.4421 23.7145 70.1197 24.027 69.685 24.2543C69.2504 24.4787 68.695 24.5909 68.0188 24.5909H65.6325V23.6364H67.9847C68.4506 23.6364 68.8256 23.5682 69.1097 23.4318C69.3967 23.2955 69.604 23.1023 69.7319 22.8523C69.8626 22.5994 69.9279 22.2983 69.9279 21.9489C69.9279 21.5994 69.8626 21.294 69.7319 21.0327C69.6012 20.7713 69.3924 20.5696 69.1055 20.4276C68.8185 20.2827 68.4393 20.2102 67.9677 20.2102H66.1097V28H65.0529ZM69.1609 24.0795L71.3086 28H70.0813L67.9677 24.0795H69.1609ZM73.0866 28H71.9787L75.1832 19.2727H76.2741L79.4787 28H78.3707L75.7628 20.6534H75.6946L73.0866 28ZM73.4957 24.5909H77.9616V25.5284H73.4957V24.5909ZM87.7585 19.2727V28H86.7358L81.9801 21.1477H81.8949V28H80.8381V19.2727H81.8608L86.6335 26.142H86.7188V19.2727H87.7585ZM92.5664 28H89.8732V19.2727H92.6857C93.5323 19.2727 94.2567 19.4474 94.859 19.7969C95.4613 20.1435 95.9229 20.642 96.244 21.2926C96.565 21.9403 96.7255 22.7159 96.7255 23.6193C96.7255 24.5284 96.5636 25.3111 96.2397 25.9673C95.9158 26.6207 95.4442 27.1236 94.8249 27.4759C94.2056 27.8253 93.4528 28 92.5664 28ZM90.93 27.0625H92.4982C93.2198 27.0625 93.8178 26.9233 94.2923 26.6449C94.7667 26.3665 95.1204 25.9702 95.3533 25.456C95.5863 24.9418 95.7028 24.3295 95.7028 23.6193C95.7028 22.9148 95.5877 22.3082 95.3576 21.7997C95.1275 21.2884 94.7837 20.8963 94.3263 20.6236C93.869 20.348 93.2994 20.2102 92.6175 20.2102H90.93V27.0625ZM108.794 19.2727V28H107.771L103.015 21.1477H102.93V28H101.873V19.2727H102.896L107.669 26.142H107.754V19.2727H108.794ZM111.266 28H110.158L113.363 19.2727H114.454L117.658 28H116.55L113.942 20.6534H113.874L111.266 28ZM111.675 24.5909H116.141V25.5284H111.675V24.5909ZM119.018 19.2727H120.279L123.245 26.517H123.347L126.313 19.2727H127.575V28H126.586V21.3693H126.501L123.773 28H122.819L120.092 21.3693H120.006V28H119.018V19.2727ZM129.694 28V19.2727H134.961V20.2102H130.75V23.1591H134.688V24.0966H130.75V27.0625H135.029V28H129.694Z" fill="black"/>
</svg>
