<svg width="392" height="80" viewBox="0 0 392 80" fill="none" xmlns="http://www.w3.org/2000/svg">
<path d="M49.424 19.8695L69.5818 20.4266C82.476 20.4266 92.93 30.8524 92.93 43.7255C92.93 56.5887 82.476 67.0244 69.5818 67.0244H50.364" stroke="white" stroke-width="4" stroke-miterlimit="10"/>
<path d="M32.466 73.65C48.1873 73.65 60.9319 60.2969 60.9319 43.825C60.9319 27.3531 48.1873 14 32.466 14C16.7446 14 4 27.3531 4 43.825C4 60.2969 16.7446 73.65 32.466 73.65Z" fill="white" stroke="white" stroke-width="3" stroke-miterlimit="10"/>
<path d="M10.8933 28.5245C11.1022 27.9077 11.8143 26.9925 12.2606 26.316C13.3335 24.8536 14.2071 23.1425 15.8497 22.5556C17.7012 21.8393 19.3533 21.4314 21.2998 20.7151C22.5531 20.2874 23.5691 19.4417 24.5661 18.5762C26.4271 16.9447 29.2186 16.6562 31.6304 16.7557C34.232 16.9348 31.7348 19.0339 30.5004 19.2826C29.8643 19.4915 26.5031 20.5162 27.7659 21.4911C28.8008 21.8293 29.9687 21.5607 31.0322 21.8393C31.6019 21.9388 32.1241 22.0383 32.5134 21.889C33.292 21.6204 33.5104 20.1282 34.3649 19.3323C35.6182 18.0589 37.6881 17.5516 39.3688 18.2082C39.9385 18.4569 40.3372 19.0737 40.0049 19.7004C39.6916 20.4764 38.2294 21.2722 38.932 22.1974C41.0589 24.1672 39.5397 24.4258 38.8465 26.3558C38.7611 27.082 39.3403 27.6988 39.3403 28.4251C39.3118 29.6487 38.1439 30.9022 39.3878 31.8075C41.4482 33.5484 40.1663 34.1055 38.3528 32.8819C37.033 32.0562 35.5328 32.5337 34.27 33.24C32.8457 34.0856 30.8992 35.8863 31.5829 37.8362C32.0386 39.209 33.8997 40.1442 35.1245 39.4179C35.9221 38.9902 36.1974 37.9456 36.8146 37.3288C37.6027 36.4832 38.7516 37.1796 38.9035 38.244C39.1029 39.7164 40.4227 39.7263 41.4102 40.3332C42.1603 40.95 42.749 41.8055 43.613 42.2731C44.1068 42.6014 44.4866 42.9993 44.3916 43.3475C43.689 44.5612 42.0368 43.1187 41.1633 42.681C39.7201 41.7458 38.049 42.3129 36.4918 42.0443C35.4094 41.8453 34.3459 42.1338 33.3394 42.5119C31.5259 42.9794 28.7249 43.0789 27.5285 41.1987C27.0823 40.552 26.3986 40.0845 25.582 39.8457C24.1198 39.4975 23.0089 38.6022 21.6986 37.9356C19.2774 37.3089 16.9131 35.7769 16.7232 32.7924C16.7137 30.9221 15.6978 29.39 14.5489 28.1565C13.9412 27.281 13.2576 27.3407 12.2036 27.9873C11.5485 28.3753 10.9978 28.7036 10.9313 28.5643V28.5245H10.8933Z" fill="#232323" stroke="#232323" stroke-miterlimit="10"/>
<path d="M44.0498 45.1282C45.2177 45.0089 46.3665 45.4665 47.5534 45.367C48.5314 45.3272 49.1201 45.8644 49.4429 46.72C49.8702 48.1326 51.3514 48.441 52.2724 49.3762C53.2409 50.3411 53.4118 52.0423 54.3233 52.9377C56.7351 54.7582 54.3423 57.2353 53.1744 59.026C51.7502 61.0555 50.5064 63.3336 48.1611 64.1892C46.6609 65.0447 45.55 66.5668 44.2302 67.681C42.711 69.0439 40.0429 69.5513 38.3528 70.7451C37.3843 71.3818 36.3304 72.4861 35.2004 72.685C34.2699 72.7746 37.1374 69.4717 37.4033 69.0042C38.1629 68.0989 38.932 67.3129 39.2928 66.3778C39.5871 65.6615 40.0334 65.0348 40.6031 64.5274C41.8564 63.4232 42.8439 61.0853 41.2772 59.8219C40.2993 58.8469 40.2613 57.1159 39.5586 55.9221C39.2168 55.3053 38.9605 54.6189 39.1314 53.9026C39.4447 52.679 39.5017 51.3061 40.3847 50.3014C40.9544 49.605 41.2867 48.7693 41.4766 47.8839C41.733 46.6404 42.7774 45.5162 43.8979 45.168L44.0498 45.1282Z" fill="#232323" stroke="#232323" stroke-miterlimit="10"/>
<path d="M115.969 25.504H124.417C128.577 25.504 131.553 26.832 133.345 29.488C135.137 32.112 136.033 35.984 136.033 41.104C136.033 43.856 135.825 46.288 135.409 48.4C134.993 50.48 134.305 52.24 133.345 53.68C132.417 55.088 131.185 56.16 129.649 56.896C128.113 57.632 126.225 58 123.985 58H115.969V25.504ZM121.825 53.248H123.889C125.041 53.248 126.001 53.024 126.769 52.576C127.569 52.128 128.209 51.424 128.689 50.464C129.169 49.472 129.505 48.208 129.697 46.672C129.921 45.136 130.033 43.28 130.033 41.104C130.033 39.248 129.937 37.648 129.745 36.304C129.553 34.928 129.217 33.808 128.737 32.944C128.289 32.048 127.665 31.392 126.865 30.976C126.097 30.56 125.121 30.352 123.937 30.352H121.825V53.248ZM156.281 52.576C156.281 52.896 156.281 53.312 156.281 53.824C156.313 54.304 156.329 54.816 156.329 55.36C156.361 55.872 156.377 56.368 156.377 56.848C156.409 57.328 156.441 57.712 156.473 58H151.289C151.225 57.744 151.161 57.392 151.097 56.944C151.065 56.464 151.049 56.048 151.049 55.696C150.569 56.496 149.897 57.152 149.033 57.664C148.169 58.176 146.969 58.432 145.433 58.432C144.249 58.432 143.225 58.224 142.361 57.808C141.529 57.36 140.841 56.8 140.297 56.128C139.785 55.424 139.401 54.64 139.145 53.776C138.921 52.88 138.809 51.984 138.809 51.088C138.809 48.528 139.641 46.528 141.305 45.088C143.001 43.616 145.433 42.88 148.601 42.88C149.049 42.88 149.433 42.88 149.753 42.88C150.073 42.88 150.377 42.896 150.665 42.928V40.24C150.665 39.888 150.633 39.52 150.569 39.136C150.537 38.752 150.425 38.416 150.233 38.128C150.073 37.808 149.801 37.552 149.417 37.36C149.065 37.168 148.585 37.072 147.977 37.072C147.369 37.072 146.889 37.168 146.537 37.36C146.185 37.52 145.913 37.76 145.721 38.08C145.529 38.368 145.401 38.704 145.337 39.088C145.273 39.472 145.225 39.872 145.193 40.288H139.721C139.753 39.392 139.897 38.496 140.153 37.6C140.409 36.672 140.857 35.856 141.497 35.152C142.137 34.448 143.001 33.872 144.089 33.424C145.177 32.976 146.553 32.752 148.217 32.752C153.593 32.752 156.281 35.136 156.281 39.904V52.576ZM150.809 47.104C150.489 47.04 150.185 47.008 149.897 47.008C149.641 47.008 149.321 47.008 148.937 47.008C147.305 47.008 146.153 47.344 145.481 48.016C144.809 48.688 144.473 49.536 144.473 50.56C144.473 50.944 144.521 51.328 144.617 51.712C144.713 52.064 144.873 52.4 145.097 52.72C145.321 53.04 145.609 53.296 145.961 53.488C146.345 53.68 146.809 53.776 147.353 53.776C148.089 53.776 148.681 53.648 149.129 53.392C149.577 53.104 149.929 52.72 150.185 52.24C150.441 51.728 150.601 51.12 150.665 50.416C150.761 49.68 150.809 48.848 150.809 47.92V47.104ZM158.695 33.136H161.959V26.944H167.671V33.136H171.511V37.84H167.671V51.472C167.671 52.208 167.783 52.768 168.007 53.152C168.263 53.536 168.839 53.728 169.735 53.728C170.023 53.728 170.263 53.728 170.455 53.728C170.679 53.728 170.919 53.696 171.175 53.632V57.808C170.631 58.064 170.023 58.208 169.351 58.24C168.679 58.304 168.119 58.336 167.671 58.336C165.655 58.336 164.199 57.904 163.303 57.04C162.407 56.176 161.959 54.624 161.959 52.384V37.84H158.695V33.136ZM191.062 52.576C191.062 52.896 191.062 53.312 191.062 53.824C191.094 54.304 191.11 54.816 191.11 55.36C191.142 55.872 191.158 56.368 191.158 56.848C191.19 57.328 191.222 57.712 191.254 58H186.07C186.006 57.744 185.942 57.392 185.878 56.944C185.846 56.464 185.83 56.048 185.83 55.696C185.35 56.496 184.678 57.152 183.814 57.664C182.95 58.176 181.75 58.432 180.214 58.432C179.03 58.432 178.006 58.224 177.142 57.808C176.31 57.36 175.622 56.8 175.078 56.128C174.566 55.424 174.182 54.64 173.926 53.776C173.702 52.88 173.59 51.984 173.59 51.088C173.59 48.528 174.422 46.528 176.086 45.088C177.782 43.616 180.214 42.88 183.382 42.88C183.83 42.88 184.214 42.88 184.534 42.88C184.854 42.88 185.158 42.896 185.446 42.928V40.24C185.446 39.888 185.414 39.52 185.35 39.136C185.318 38.752 185.206 38.416 185.014 38.128C184.854 37.808 184.582 37.552 184.198 37.36C183.846 37.168 183.366 37.072 182.758 37.072C182.15 37.072 181.67 37.168 181.318 37.36C180.966 37.52 180.694 37.76 180.502 38.08C180.31 38.368 180.182 38.704 180.118 39.088C180.054 39.472 180.006 39.872 179.974 40.288H174.502C174.534 39.392 174.678 38.496 174.934 37.6C175.19 36.672 175.638 35.856 176.278 35.152C176.918 34.448 177.782 33.872 178.87 33.424C179.958 32.976 181.334 32.752 182.998 32.752C188.374 32.752 191.062 35.136 191.062 39.904V52.576ZM185.59 47.104C185.27 47.04 184.966 47.008 184.678 47.008C184.422 47.008 184.102 47.008 183.718 47.008C182.086 47.008 180.934 47.344 180.262 48.016C179.59 48.688 179.254 49.536 179.254 50.56C179.254 50.944 179.302 51.328 179.398 51.712C179.494 52.064 179.654 52.4 179.878 52.72C180.102 53.04 180.39 53.296 180.742 53.488C181.126 53.68 181.59 53.776 182.134 53.776C182.87 53.776 183.462 53.648 183.91 53.392C184.358 53.104 184.71 52.72 184.966 52.24C185.222 51.728 185.382 51.12 185.446 50.416C185.542 49.68 185.59 48.848 185.59 47.92V47.104ZM202.382 33.136H205.646V26.944H211.358V33.136H215.198V37.84H211.358V51.472C211.358 52.208 211.47 52.768 211.694 53.152C211.95 53.536 212.526 53.728 213.422 53.728C213.71 53.728 213.95 53.728 214.142 53.728C214.366 53.728 214.606 53.696 214.862 53.632V57.808C214.318 58.064 213.71 58.208 213.038 58.24C212.366 58.304 211.806 58.336 211.358 58.336C209.342 58.336 207.886 57.904 206.99 57.04C206.094 56.176 205.646 54.624 205.646 52.384V37.84H202.382V33.136ZM226.69 32.752C229.698 32.752 231.97 33.808 233.506 35.92C235.042 38.032 235.81 41.184 235.81 45.376C235.81 49.888 234.994 53.2 233.362 55.312C231.762 57.424 229.442 58.48 226.402 58.48C223.394 58.48 221.09 57.456 219.49 55.408C217.922 53.36 217.138 50.064 217.138 45.52C217.138 41.104 217.986 37.872 219.682 35.824C221.41 33.776 223.746 32.752 226.69 32.752ZM226.546 37.552C225.234 37.552 224.306 38.208 223.762 39.52C223.218 40.8 222.946 42.784 222.946 45.472C222.946 48.16 223.202 50.208 223.714 51.616C224.226 52.992 225.186 53.68 226.594 53.68C227.874 53.68 228.77 52.992 229.282 51.616C229.794 50.24 230.05 48.208 230.05 45.52C230.05 42.768 229.794 40.752 229.282 39.472C228.77 38.192 227.858 37.552 226.546 37.552ZM252.984 48.928C253.048 49.6 253.176 50.24 253.368 50.848C253.56 51.456 253.816 52 254.136 52.48C254.488 52.928 254.92 53.296 255.432 53.584C255.976 53.84 256.616 53.968 257.352 53.968C258.792 53.968 259.8 53.568 260.376 52.768C260.952 51.968 261.24 50.96 261.24 49.744C261.24 49.072 261.144 48.464 260.952 47.92C260.792 47.376 260.504 46.864 260.088 46.384C259.672 45.904 259.112 45.44 258.408 44.992C257.736 44.544 256.888 44.08 255.864 43.6C254.456 42.928 253.256 42.272 252.264 41.632C251.304 40.992 250.504 40.288 249.864 39.52C249.256 38.752 248.808 37.904 248.52 36.976C248.232 36.048 248.088 34.976 248.088 33.76C248.088 32.48 248.296 31.312 248.712 30.256C249.128 29.168 249.72 28.24 250.488 27.472C251.288 26.704 252.248 26.112 253.368 25.696C254.52 25.248 255.832 25.024 257.304 25.024C259.128 25.024 260.632 25.312 261.816 25.888C263 26.432 263.928 27.152 264.6 28.048C265.304 28.912 265.784 29.888 266.04 30.976C266.328 32.064 266.488 33.136 266.52 34.192H260.808C260.776 33.712 260.712 33.216 260.616 32.704C260.52 32.16 260.344 31.664 260.088 31.216C259.832 30.736 259.464 30.352 258.984 30.064C258.536 29.744 257.944 29.584 257.208 29.584C256.056 29.584 255.208 29.92 254.664 30.592C254.152 31.264 253.896 32.16 253.896 33.28C253.896 33.856 253.96 34.384 254.088 34.864C254.248 35.312 254.504 35.728 254.856 36.112C255.24 36.496 255.736 36.88 256.344 37.264C256.984 37.648 257.784 38.064 258.744 38.512C260.184 39.184 261.432 39.872 262.488 40.576C263.576 41.248 264.456 42 265.128 42.832C265.832 43.664 266.344 44.608 266.664 45.664C267.016 46.688 267.192 47.872 267.192 49.216C267.192 50.496 266.984 51.712 266.568 52.864C266.184 53.984 265.576 54.976 264.744 55.84C263.912 56.672 262.872 57.344 261.624 57.856C260.376 58.336 258.888 58.576 257.16 58.576C255.272 58.576 253.704 58.304 252.456 57.76C251.208 57.216 250.2 56.496 249.432 55.6C248.696 54.672 248.152 53.632 247.8 52.48C247.448 51.328 247.256 50.144 247.224 48.928H252.984ZM287.818 49.6C287.786 50.08 287.69 50.816 287.53 51.808C287.402 52.8 287.05 53.792 286.474 54.784C285.898 55.744 285.018 56.592 283.834 57.328C282.682 58.064 281.082 58.432 279.034 58.432C277.242 58.432 275.77 58.096 274.618 57.424C273.498 56.752 272.602 55.84 271.93 54.688C271.258 53.504 270.794 52.112 270.538 50.512C270.282 48.912 270.154 47.2 270.154 45.376C270.154 43.744 270.298 42.16 270.586 40.624C270.906 39.088 271.418 37.744 272.122 36.592C272.858 35.408 273.802 34.464 274.954 33.76C276.138 33.056 277.61 32.704 279.37 32.704C280.714 32.704 281.85 32.88 282.778 33.232C283.738 33.584 284.522 34.032 285.13 34.576C285.77 35.12 286.266 35.728 286.618 36.4C286.97 37.072 287.226 37.728 287.386 38.368C287.578 38.976 287.69 39.552 287.722 40.096C287.786 40.608 287.818 40.992 287.818 41.248H282.01C282.01 40.992 281.978 40.656 281.914 40.24C281.882 39.792 281.77 39.36 281.578 38.944C281.418 38.528 281.162 38.176 280.81 37.888C280.458 37.568 279.962 37.408 279.322 37.408C278.042 37.408 277.162 38.096 276.682 39.472C276.202 40.848 275.962 42.832 275.962 45.424C275.962 48.112 276.186 50.16 276.634 51.568C277.114 52.976 277.978 53.68 279.226 53.68C279.898 53.68 280.426 53.536 280.81 53.248C281.194 52.96 281.482 52.608 281.674 52.192C281.898 51.744 282.042 51.296 282.106 50.848C282.17 50.368 282.218 49.952 282.25 49.6H287.818ZM291.462 33.136H297.174V58H291.462V33.136ZM291.51 29.584V23.92H297.222V29.584H291.51ZM306.85 47.056C306.85 47.856 306.882 48.656 306.946 49.456C307.042 50.224 307.202 50.928 307.426 51.568C307.682 52.208 308.034 52.736 308.482 53.152C308.962 53.536 309.602 53.728 310.402 53.728C311.106 53.728 311.666 53.6 312.082 53.344C312.53 53.088 312.866 52.784 313.09 52.432C313.346 52.048 313.506 51.68 313.57 51.328C313.666 50.944 313.73 50.656 313.762 50.464H319.234C319.202 50.592 319.154 50.88 319.09 51.328C319.026 51.776 318.898 52.304 318.706 52.912C318.514 53.488 318.226 54.112 317.842 54.784C317.458 55.424 316.93 56.016 316.258 56.56C315.618 57.104 314.818 57.568 313.858 57.952C312.898 58.304 311.73 58.48 310.354 58.48C308.338 58.48 306.722 58.096 305.506 57.328C304.29 56.56 303.362 55.552 302.722 54.304C302.082 53.056 301.65 51.664 301.426 50.128C301.234 48.56 301.138 46.992 301.138 45.424C301.138 41.488 301.906 38.4 303.442 36.16C304.978 33.888 307.314 32.752 310.45 32.752C312.242 32.752 313.714 33.072 314.866 33.712C316.05 34.32 316.978 35.168 317.65 36.256C318.322 37.344 318.786 38.608 319.042 40.048C319.298 41.456 319.426 42.976 319.426 44.608C319.426 45.056 319.41 45.52 319.378 46C319.378 46.48 319.362 46.832 319.33 47.056H306.85ZM313.762 42.928C313.762 42.32 313.73 41.696 313.666 41.056C313.602 40.384 313.458 39.792 313.234 39.28C313.01 38.736 312.674 38.288 312.226 37.936C311.81 37.584 311.218 37.408 310.45 37.408C309.618 37.408 308.962 37.616 308.482 38.032C308.034 38.416 307.682 38.896 307.426 39.472C307.202 40.048 307.058 40.656 306.994 41.296C306.962 41.936 306.946 42.48 306.946 42.928H313.762ZM323.337 40.864C323.337 39.584 323.337 38.528 323.337 37.696C323.337 36.864 323.337 36.176 323.337 35.632C323.337 35.056 323.321 34.592 323.289 34.24C323.289 33.856 323.289 33.488 323.289 33.136H328.809C328.841 33.456 328.873 33.856 328.905 34.336C328.937 34.816 328.953 35.28 328.953 35.728C329.145 35.408 329.385 35.072 329.673 34.72C329.961 34.336 330.329 34 330.777 33.712C331.225 33.424 331.737 33.184 332.313 32.992C332.921 32.8 333.641 32.704 334.473 32.704C336.489 32.704 338.041 33.344 339.129 34.624C340.249 35.872 340.809 37.76 340.809 40.288V58H335.097V41.584C335.097 40.368 334.905 39.408 334.521 38.704C334.169 37.968 333.417 37.6 332.265 37.6C331.177 37.6 330.361 37.968 329.817 38.704C329.305 39.408 329.049 40.704 329.049 42.592V58H323.337V40.864ZM362.396 49.6C362.364 50.08 362.268 50.816 362.108 51.808C361.98 52.8 361.628 53.792 361.052 54.784C360.476 55.744 359.596 56.592 358.412 57.328C357.26 58.064 355.66 58.432 353.612 58.432C351.82 58.432 350.348 58.096 349.196 57.424C348.076 56.752 347.18 55.84 346.508 54.688C345.836 53.504 345.372 52.112 345.116 50.512C344.86 48.912 344.732 47.2 344.732 45.376C344.732 43.744 344.876 42.16 345.164 40.624C345.484 39.088 345.996 37.744 346.7 36.592C347.436 35.408 348.38 34.464 349.532 33.76C350.716 33.056 352.188 32.704 353.948 32.704C355.292 32.704 356.428 32.88 357.356 33.232C358.316 33.584 359.1 34.032 359.708 34.576C360.348 35.12 360.844 35.728 361.196 36.4C361.548 37.072 361.804 37.728 361.964 38.368C362.156 38.976 362.268 39.552 362.3 40.096C362.364 40.608 362.396 40.992 362.396 41.248H356.588C356.588 40.992 356.556 40.656 356.492 40.24C356.46 39.792 356.348 39.36 356.156 38.944C355.996 38.528 355.74 38.176 355.388 37.888C355.036 37.568 354.54 37.408 353.9 37.408C352.62 37.408 351.74 38.096 351.26 39.472C350.78 40.848 350.54 42.832 350.54 45.424C350.54 48.112 350.764 50.16 351.212 51.568C351.692 52.976 352.556 53.68 353.804 53.68C354.476 53.68 355.004 53.536 355.388 53.248C355.772 52.96 356.06 52.608 356.252 52.192C356.476 51.744 356.62 51.296 356.684 50.848C356.748 50.368 356.796 49.952 356.828 49.6H362.396ZM370.881 47.056C370.881 47.856 370.913 48.656 370.977 49.456C371.073 50.224 371.233 50.928 371.457 51.568C371.713 52.208 372.065 52.736 372.513 53.152C372.993 53.536 373.633 53.728 374.433 53.728C375.137 53.728 375.697 53.6 376.113 53.344C376.561 53.088 376.897 52.784 377.121 52.432C377.377 52.048 377.537 51.68 377.601 51.328C377.697 50.944 377.761 50.656 377.793 50.464H383.265C383.233 50.592 383.185 50.88 383.121 51.328C383.057 51.776 382.929 52.304 382.737 52.912C382.545 53.488 382.257 54.112 381.873 54.784C381.489 55.424 380.961 56.016 380.289 56.56C379.649 57.104 378.849 57.568 377.889 57.952C376.929 58.304 375.761 58.48 374.385 58.48C372.369 58.48 370.753 58.096 369.537 57.328C368.321 56.56 367.393 55.552 366.753 54.304C366.113 53.056 365.681 51.664 365.457 50.128C365.265 48.56 365.169 46.992 365.169 45.424C365.169 41.488 365.937 38.4 367.473 36.16C369.009 33.888 371.345 32.752 374.481 32.752C376.273 32.752 377.745 33.072 378.897 33.712C380.081 34.32 381.009 35.168 381.681 36.256C382.353 37.344 382.817 38.608 383.073 40.048C383.329 41.456 383.457 42.976 383.457 44.608C383.457 45.056 383.441 45.52 383.409 46C383.409 46.48 383.393 46.832 383.361 47.056H370.881ZM377.793 42.928C377.793 42.32 377.761 41.696 377.697 41.056C377.633 40.384 377.489 39.792 377.265 39.28C377.041 38.736 376.705 38.288 376.257 37.936C375.841 37.584 375.249 37.408 374.481 37.408C373.649 37.408 372.993 37.616 372.513 38.032C372.065 38.416 371.713 38.896 371.457 39.472C371.233 40.048 371.089 40.656 371.025 41.296C370.993 41.936 370.977 42.48 370.977 42.928H377.793Z" fill="white"/>
</svg>
