<svg width="26" height="27" viewBox="0 0 26 27" fill="none" xmlns="http://www.w3.org/2000/svg">
<path d="M6.05792 22.118C6.75253 22.118 7.31561 21.555 7.31561 20.8604C7.31561 20.1657 6.75253 19.6027 6.05792 19.6027C5.36332 19.6027 4.80023 20.1657 4.80023 20.8604C4.80023 21.555 5.36332 22.118 6.05792 22.118ZM20.8358 7.34016C21.5304 7.34016 22.0935 6.77707 22.0935 6.08247C22.0935 5.38787 21.5304 4.82478 20.8358 4.82478C20.1412 4.82478 19.5781 5.38787 19.5781 6.08247C19.5781 6.77707 20.1412 7.34016 20.8358 7.34016ZM6.22467 21.0271L21.0026 6.24922L20.6691 5.91572L5.89117 20.6936L6.22467 21.0271Z" fill="#003169"/>
<path d="M4.80023 6.08301C4.80023 6.77761 5.36332 7.3407 6.05792 7.3407C6.75253 7.3407 7.31561 6.77761 7.31561 6.08301C7.31561 5.3884 6.75253 4.82532 6.05792 4.82532C5.36332 4.82532 4.80023 5.3884 4.80023 6.08301ZM19.5781 20.8609C19.5781 21.5555 20.1412 22.1186 20.8358 22.1186C21.5304 22.1186 22.0935 21.5555 22.0935 20.8609C22.0935 20.1663 21.5304 19.6032 20.8358 19.6032C20.1412 19.6032 19.5781 20.1663 19.5781 20.8609ZM5.89117 6.24976L20.6691 21.0276L21.0026 20.6941L6.22467 5.91626L5.89117 6.24976Z" fill="#003169"/>
<path d="M6.05792 20.8604L20.8358 6.08247" stroke="#003169" stroke-width="1.56877"/>
<path d="M6.05792 6.08301L20.8358 20.8609" stroke="#003169" stroke-width="1.56877" stroke-linejoin="round"/>
<path d="M20.0038 10.4522C20.9182 10.6196 21.8621 10.4932 22.7003 10.0912C23.5384 9.68914 24.2278 9.03208 24.6696 8.21416C25.1113 7.39624 25.2828 6.45947 25.1595 5.5381C25.0361 4.61672 24.6242 3.75805 23.9829 3.08516C23.3415 2.41226 22.5036 1.95968 21.5892 1.79228C20.6748 1.62489 19.7308 1.75127 18.8927 2.15331C18.0545 2.55535 17.3652 3.21242 16.9234 4.03034C16.4816 4.84825 16.3101 5.78503 16.4335 6.7064" stroke="#003169" stroke-width="1.56877" stroke-linecap="round"/>
<path d="M16.4862 20.003C16.2976 20.9132 16.402 21.8598 16.7845 22.7071C17.1669 23.5544 17.8078 24.2588 18.6152 24.7195C19.4226 25.1802 20.3551 25.3734 21.2791 25.2715C22.2031 25.1696 23.0711 24.7778 23.7588 24.1522C24.4464 23.5267 24.9183 22.6995 25.107 21.7892C25.2956 20.879 25.1912 19.9324 24.8087 19.0851C24.4263 18.2378 23.7854 17.5334 22.978 17.0727C22.1706 16.612 21.238 16.4188 20.314 16.5207" stroke="#003169" stroke-width="1.56877" stroke-linecap="round"/>
<path d="M10.365 6.57129C10.4599 5.64655 10.2596 4.71551 9.79275 3.91162C9.32594 3.10773 8.61663 2.47226 7.76646 2.09628C6.91629 1.7203 5.96892 1.62311 5.06012 1.81866C4.15133 2.0142 3.32777 2.49243 2.70747 3.1848C2.08718 3.87717 1.702 4.74815 1.60713 5.67289C1.51227 6.59763 1.7126 7.52867 2.17941 8.33256C2.64621 9.13645 3.35553 9.77192 4.20569 10.1479C5.05586 10.5239 6.00323 10.6211 6.91203 10.4255" stroke="#003169" stroke-width="1.56877" stroke-linecap="round"/>
<path d="M6.61546 16.5409C5.69541 16.408 4.75691 16.5698 3.93446 17.0031C3.11202 17.4363 2.44784 18.1189 2.03714 18.9528C1.62644 19.7867 1.49029 20.7293 1.6482 21.6454C1.80612 22.5615 2.24999 23.4041 2.91621 24.0524C3.58243 24.7007 4.43678 25.1214 5.35683 25.2543C6.27687 25.3872 7.21537 25.2254 8.03782 24.7922C8.86027 24.3589 9.52444 23.6764 9.93515 22.8424C10.3459 22.0085 10.482 21.0659 10.3241 20.1498" stroke="#003169" stroke-width="1.56877" stroke-linecap="round"/>
</svg>
