<svg width="60" height="74" viewBox="0 0 60 74" fill="none" xmlns="http://www.w3.org/2000/svg">
<path d="M2 70.0799V4.10557C2 2.9427 2.9427 2 4.10557 2H44.9939C45.5522 2 46.0877 2.22182 46.4825 2.61672L57.5318 13.6657C57.9266 14.0606 58.1484 14.5962 58.1484 15.1546V70.0799C58.1484 71.2429 57.2058 72.1855 56.0428 72.1855H4.10557C2.9427 72.1855 2 71.2429 2 70.0799Z" fill="#F4FCFF" stroke="#6099D7" stroke-width="2.46006" stroke-linecap="round" stroke-linejoin="round"/>
<path d="M44.1113 2V13.9315C44.1113 15.0944 45.0539 16.0371 46.2169 16.0371H58.1484" fill="#F4FCFF"/>
<path d="M44.1113 2V13.9315C44.1113 15.0944 45.0539 16.0371 46.2169 16.0371H58.1484" stroke="#6099D7" stroke-width="2.46006" stroke-linecap="round" stroke-linejoin="round"/>
<path d="M16.9541 57.3896H43.1947" stroke="#6099D7" stroke-width="3.28008" stroke-linecap="round" stroke-linejoin="round"/>
<path d="M30.0744 48.643V22.4023M30.0744 22.4023L37.7279 30.0559M30.0744 22.4023L22.4209 30.0559" stroke="#6099D7" stroke-width="3.28008" stroke-linecap="round" stroke-linejoin="round"/>
</svg>
